<?xml version="1.0" standalone="no"?><!DOCTYPE svg PUBLIC "-//W3C//DTD SVG 1.1//EN" "http://www.w3.org/Graphics/SVG/1.1/DTD/svg11.dtd"><svg t="1781147361266" class="icon" viewBox="0 0 1024 1024" version="1.1" xmlns="http://www.w3.org/2000/svg" p-id="2783" xmlns:xlink="http://www.w3.org/1999/xlink" width="200" height="200"><path d="M491.52 204.8c158.3104 0 286.72 137.5232 286.72 307.2 0 32.5632-4.8128 63.7952-13.6192 93.184-9.216 31.0272-13.9264 46.592-11.4688 57.1392a35.2256 35.2256 0 0 0 1.3312 4.608c3.6864 10.24 13.7216 18.8416 33.792 36.0448l9.5232 8.192a61.44 61.44 0 0 1-79.9744 93.184l-5.5296-4.7104c-20.5824-17.7152-30.9248-26.624-41.6768-28.672a34.5088 34.5088 0 0 0-4.7104-0.512c-10.9568-0.8192-26.3168 6.656-57.2416 21.7088C572.928 809.472 533.2992 819.2 491.52 819.2 333.2096 819.2 204.8 681.6768 204.8 512s128.4096-307.2 286.72-307.2z m0 122.88c-82.6368 0-163.84 74.4448-163.84 184.32s81.2032 184.32 163.84 184.32S655.36 621.8752 655.36 512s-81.2032-184.32-163.84-184.32z" p-id="2784" fill="#ffffff"></path></svg>