<?xml version="1.0" standalone="no"?><!DOCTYPE svg PUBLIC "-//W3C//DTD SVG 1.1//EN" "http://www.w3.org/Graphics/SVG/1.1/DTD/svg11.dtd"><svg t="1781147395630" class="icon" viewBox="0 0 1024 1024" version="1.1" xmlns="http://www.w3.org/2000/svg" p-id="4043" xmlns:xlink="http://www.w3.org/1999/xlink" width="200" height="200"><path d="M451.9936 239.4112a71.7824 71.7824 0 0 1 120.0128 0l5.4272 9.8304 215.8592 480.9728a61.44 61.44 0 1 1-112.128 50.3808l-18.1248-40.448c-4.7104-10.5472-7.168-15.872-11.4688-19.0464a20.48 20.48 0 0 0-2.048-1.2288c-4.608-2.6624-10.4448-2.6624-22.016-2.6624H378.88c-4.4032 0-8.6016 1.9456-10.4448 5.9392l-25.7024 57.344a61.44 61.44 0 1 1-112.0256-50.176l215.8592-481.0752 5.4272-9.8304z m-1.024 300.032c-10.5472 23.3472-15.7696 35.0208-11.264 43.8272a20.48 20.48 0 0 0 2.2528 3.3792c6.144 7.68 18.944 7.68 44.4416 7.68h51.0976c25.6 0 38.2976 0 44.4416-7.68a20.48 20.48 0 0 0 2.2528-3.3792c4.5056-8.8064-0.7168-20.48-11.264-43.7248l-25.6-56.9344c-14.336-32.0512-21.504-48.128-33.0752-49.3568a20.48 20.48 0 0 0-4.7104 0c-11.5712 1.3312-18.7392 17.408-33.0752 49.3568l-25.6 56.9344z" p-id="4044" fill="#ffffff"></path></svg>